# xmcd
#
# Track frame offsets: 
#        150
#        17557
#        36464
#        52929
#        73488
#        92523
#        115209
#        135520
#        155083
#
# Disc length: 2292 seconds
#
# Revision: 0
# Processed by: cddbd v1.5.2PL0 Copyright (c) Steve Scherf et al.
# Submitted via: ExactAudioCopy v0.90b4
#
DISCID=7808f209
DTITLE=Franco Paletta and The Stingers - Can't Kick Love
DYEAR=2010
DGENRE=Blues
TTITLE0=I Can't Stand It
TTITLE1=Love Me One More Time
TTITLE2=Can't Kick Love
TTITLE3=Pretty Senorita
TTITLE4=Southbound
TTITLE5=Messin' Around
TTITLE6=Crazy 'bout You Baby
TTITLE7=My Baby's Leavin'
TTITLE8=Baby Won't Let Me Ride
EXTD=
EXTT0=
EXTT1=
EXTT2=
EXTT3=
EXTT4=
EXTT5=
EXTT6=
EXTT7=
EXTT8=
PLAYORDER=
